<svg id="Layer_1" data-name="Layer 1" xmlns="http://www.w3.org/2000/svg" viewBox="0 0 265.62 38.78">
  <defs>
    <style>
      .cls-1 {
        fill: #231f20;
      }

      .cls-2 {
        fill: #ed1b50;
      }

      .cls-3 {
        fill: #fff;
      }

      .cls-4 {
        fill: #ffd628;
      }
    </style>
  </defs>
  <title>webpopcorn</title>
  <path class="cls-1" d="M72.82,31.22H66.38L63,20.3,59.42,31.22H53L48.1,14.95a3.15,3.15,0,0,1,2.11-4.26c1.88-.4,3.66.23,4.19,2.31l2.54,10.46L60,13.23a3,3,0,0,1,3-2.44,3,3,0,0,1,3.1,2.41l3.07,10.36L71.63,13c.5-2,2.18-2.67,4.06-2.28S78.3,13,77.67,15Z" transform="translate(-0.17 -0.17)"/>
  <path class="cls-1" d="M79.46,22.64v-2.9c0-7,5.18-9.14,9.41-9.14,4.59,0,9.11,1.78,9.11,10.53a14.31,14.31,0,0,1-.17,2H86v0c0,2.24,2.18,3,3.76,3a8.76,8.76,0,0,0,3.2-.43,7.75,7.75,0,0,1,1.55-.5,2.37,2.37,0,0,1,2.61,1.25c.69,1.62-.1,3-1.68,3.93a12.87,12.87,0,0,1-5.81,1.32C84.84,31.78,79.46,29.54,79.46,22.64ZM86,18.84h5.58a2.46,2.46,0,0,0-2.67-2.9A2.67,2.67,0,0,0,86,18.84Z" transform="translate(-0.17 -0.17)"/>
  <path class="cls-1" d="M101,31.22V6.63a3.35,3.35,0,0,1,6.7,0v5.51a6.82,6.82,0,0,1,4.46-1.55c4.36,0,8.05,2.15,8.05,9.11v3c0,7-3.7,9.11-8.05,9.11a6.76,6.76,0,0,1-5.58-2.71l-.33,2.15Zm12.41-12a2.86,2.86,0,1,0-5.71-.17v4.06a2.86,2.86,0,1,0,5.71,0Z" transform="translate(-0.17 -0.17)"/>
  <path class="cls-2" d="M123.33,37V13.89a3.16,3.16,0,0,1,3.33-3.3,3.31,3.31,0,0,1,3.07,1.82,7.2,7.2,0,0,1,4.75-1.82c4.36,0,8.05,2.15,8.05,9.11v3c0,7-3.7,9.11-8.05,9.11A7.89,7.89,0,0,1,130,30.43V37Zm12.41-17.79a2.86,2.86,0,1,0-5.71,0V23.3a2.86,2.86,0,1,0,5.71-.17Z" transform="translate(-0.17 -0.17)"/>
  <path class="cls-2" d="M145.31,19.67c0-7.1,5.08-9.14,9.57-9.14s9.57,2,9.57,9.14v3c0,7.1-5.18,9.14-9.57,9.14s-9.57-2-9.57-9.14Zm12.51-.3a3,3,0,1,0-5.87,0V23a3,3,0,1,0,5.87,0Z" transform="translate(-0.17 -0.17)"/>
  <path class="cls-2" d="M167.5,37V13.89a3.16,3.16,0,0,1,3.33-3.3,3.31,3.31,0,0,1,3.07,1.82,7.2,7.2,0,0,1,4.75-1.82c4.36,0,8.05,2.15,8.05,9.11v3c0,7-3.7,9.11-8.05,9.11a7.89,7.89,0,0,1-4.46-1.35V37ZM179.9,19.24a2.86,2.86,0,1,0-5.71,0V23.3a2.86,2.86,0,1,0,5.71-.17Z" transform="translate(-0.17 -0.17)"/>
  <path class="cls-1" d="M196.28,22.67c0,2.81,1.72,3.47,3.23,3.47a5.64,5.64,0,0,0,2.64-.53,5.53,5.53,0,0,1,1.62-.66A2.37,2.37,0,0,1,206.28,26c.92,1.52.1,3.33-1.45,4.29a10.27,10.27,0,0,1-5.31,1.45c-4.79,0-10-2-10-9.14v-2.9c0-6.93,5.25-9.14,9.8-9.14a9.81,9.81,0,0,1,5.15,1.29c1.55,1,2.38,2.67,1.52,4.16a2.45,2.45,0,0,1-2.67,1.19,5,5,0,0,1-1.58-.56,4.56,4.56,0,0,0-2.18-.43c-1.45,0-3.23.66-3.23,3.47Z" transform="translate(-0.17 -0.17)"/>
  <path class="cls-1" d="M209.06,19.67c0-7.1,5.08-9.14,9.57-9.14s9.57,2,9.57,9.14v3c0,7.1-5.18,9.14-9.57,9.14s-9.57-2-9.57-9.14Zm12.51-.3a3,3,0,1,0-5.87,0V23a3,3,0,1,0,5.87,0Z" transform="translate(-0.17 -0.17)"/>
  <path class="cls-1" d="M231.24,31.22V13.89a3.16,3.16,0,0,1,3.33-3.3,3.28,3.28,0,0,1,3.07,1.85A6.43,6.43,0,0,1,242,10.59a4.27,4.27,0,0,1,1.55.26,3.05,3.05,0,0,1,1.75,3.4,2.85,2.85,0,0,1-2.87,2.54c-.46,0-1.06,0-1.52,0a2.89,2.89,0,0,0-3,2.81V31.22Z" transform="translate(-0.17 -0.17)"/>
  <path class="cls-1" d="M247.05,31.22V13.89a3.16,3.16,0,0,1,3.33-3.3,3.31,3.31,0,0,1,3.07,1.82,7.18,7.18,0,0,1,4.82-1.82c4.19,0,7.52,2.08,7.52,9V31.22H259v-12c0-2.24-1.49-3-2.61-3a2.68,2.68,0,0,0-2.64,3v12Z" transform="translate(-0.17 -0.17)"/>
  <g>
    <path class="cls-1" d="M22.36,36.4l.93-.18-.41.24A3,3,0,0,1,22.36,36.4Z" transform="translate(-0.17 -0.17)"/>
    <path class="cls-1" d="M28.28,30l-.29.1h0l.06-.26.12-.1.08-.06C28.26,29.78,28.27,29.9,28.28,30Z" transform="translate(-0.17 -0.17)"/>
    <path class="cls-1" d="M28,30.11h0a4.48,4.48,0,0,1-.45.14s.19-.14.51-.41Z" transform="translate(-0.17 -0.17)"/>
    <path class="cls-1" d="M28.25,29.69l-.08.06-.12.1.15-.63S28.22,29.38,28.25,29.69Z" transform="translate(-0.17 -0.17)"/>
    <path class="cls-1" d="M28.68,24.43l-.24,0h.24Z" transform="translate(-0.17 -0.17)"/>
    <path class="cls-1" d="M28.32,24.39l-1-.07Z" transform="translate(-0.17 -0.17)"/>
    <path class="cls-1" d="M27.3,24.32Z" transform="translate(-0.17 -0.17)"/>
    <path class="cls-1" d="M13.61,28.78a2.29,2.29,0,0,1,.32-.62l.15-.18s0,.08-.08.22a2.5,2.5,0,0,0-.11.64,3.09,3.09,0,0,0,.74,2.07,7.9,7.9,0,0,0,2.76,1.88,25,25,0,0,0,4,1.52,6.67,6.67,0,0,0,3.81.24,3.66,3.66,0,0,0,2.1-2.14,12.46,12.46,0,0,0,.7-2.28l.29-.1v.1a10,10,0,0,1-.11,2.54,5.39,5.39,0,0,1-.67,1.76A4.09,4.09,0,0,1,25.81,36a5.37,5.37,0,0,1-2.46.51l-.47,0,.41-.24-.93.18a10.14,10.14,0,0,1-1.5-.31,15.93,15.93,0,0,1-4.24-1.94,7.54,7.54,0,0,1-2.77-2.76A3.39,3.39,0,0,1,13.61,28.78Z" transform="translate(-0.17 -0.17)"/>
    <path class="cls-3" d="M11,27.91a7.43,7.43,0,0,0,2.73-.09l.22.34a2.29,2.29,0,0,0-.32.62,3.39,3.39,0,0,0,.24,2.62,7.54,7.54,0,0,0,2.77,2.76,15.93,15.93,0,0,0,4.24,1.94,10.14,10.14,0,0,0,1.5.31l-2.3.44a15.61,15.61,0,0,1-7.4-.1,6.9,6.9,0,0,1-3.18-2.05c-.77-.9-.51-4-.6-5A9.09,9.09,0,0,1,9,27.41v0A8.39,8.39,0,0,0,11,27.91Z" transform="translate(-0.17 -0.17)"/>
    <path class="cls-1" d="M34.85,7.38c0,.05.1.32.25.74s1.67,5,2.1,5.73A11.87,11.87,0,0,0,39,16.25a15.92,15.92,0,0,1,2.57,3.1,4.57,4.57,0,0,1,.62,2.34,4,4,0,0,1-.72,2.18,4.14,4.14,0,0,1-3.1,1.79,4.49,4.49,0,0,1-2.24-.42,3.49,3.49,0,0,1-.69-.42,4.44,4.44,0,0,0,.77.13,4.59,4.59,0,0,0,2-.21,3.35,3.35,0,0,0,1.94-1.7,2.89,2.89,0,0,0-.19-2.82c-.56-1-1.46-2-2.17-3a9.38,9.38,0,0,1-1.41-3c-.24-.92-1.52-5.5-1.52-6S34.84,7.45,34.85,7.38Z" transform="translate(-0.17 -0.17)"/>
    <path class="cls-1" d="M25.23,16.07l-.16.14s0-.08,0-.12a0,0,0,0,1,0,0Z" transform="translate(-0.17 -0.17)"/>
    <path class="cls-1" d="M25.25,15.8a2.16,2.16,0,0,1,0,.25,2,2,0,0,0-.05-.24l0-.14v0h0v0h0s.1,0,.07,0l.06,0v.06A1.21,1.21,0,0,1,25.25,15.8Z" transform="translate(-0.17 -0.17)"/>
    <path class="cls-1" d="M25.1,16.07c0-.15,0-.28,0-.39v0l0,.14a2,2,0,0,1,.05.24,0,0,0,0,0,0,0H25.1Z" transform="translate(-0.17 -0.17)"/>
    <path class="cls-1" d="M25.19,15.52s.08,0,.09,0v.11c0,.13,0,.27.06.43a20,20,0,0,1,.1,2.76.44.44,0,0,0,.14.29,1.73,1.73,0,0,0,.43.31c.37.22.85.4,1.4.76a7.43,7.43,0,0,1,.74.6l.34.34q.27.3.53.62a20.34,20.34,0,0,1,1.68,2.76l-2.15-.11h0c-.36,0-.75-.13-1.14-.21l-.32-.06-.23,0-.27,0a2.28,2.28,0,0,0-.89.1.84.84,0,0,0-.47.34,2.25,2.25,0,0,0,.13,1.64,4,4,0,0,1,.17,2.59,2.16,2.16,0,0,1-.89,1,1.45,1.45,0,0,1-1.33.08,1.89,1.89,0,0,1-.76-.74l-.4-.63-.63-1L21,26.58l.75.7.87.83c.32.29.75.83,1,.86a.46.46,0,0,0,.4-.14,1,1,0,0,0,.29-.5,3.17,3.17,0,0,0-.44-1.63,5.78,5.78,0,0,1-.43-1.27,2.72,2.72,0,0,1,.18-1.73,2.56,2.56,0,0,1,1.41-1.26,3.81,3.81,0,0,1,1.68-.24l.39,0h.11l.08,0s.06,0,0-.09l0-.06-.25-.3c-.16-.19-.37-.42-.5-.54-.33-.3-.8-.57-1.23-.94a2.65,2.65,0,0,1-.6-.68,1.4,1.4,0,0,1-.18-1c.24-1.06.41-1.93.5-2.54l.16-.14h0a0,0,0,0,1,0,0,2.16,2.16,0,0,0,0-.25,1.21,1.21,0,0,0,0-.14v-.06l-.06,0s-.1,0-.07,0h0S25.11,15.61,25.19,15.52Z" transform="translate(-0.17 -0.17)"/>
    <path class="cls-1" d="M7.94,29.71a7.54,7.54,0,0,1,.79-2.39l0-.06.25.11v0a9.09,9.09,0,0,0-.14,2.32c.09.92-.17,4.06.6,5a6.9,6.9,0,0,0,3.18,2.05,15.61,15.61,0,0,0,7.4.1l2.3-.44a3,3,0,0,0,.53.06l-.36.2c-.51.28-1.25.66-2.2,1.07a15.62,15.62,0,0,1-3.55,1.07,10.06,10.06,0,0,1-4.7-.29,7.23,7.23,0,0,1-3.88-2.9C7.38,34.35,7.79,30.83,7.94,29.71Z" transform="translate(-0.17 -0.17)"/>
    <path class="cls-1" d="M9,27.37l-.25-.11.37-.73C9.13,26.6,9.09,26.89,9,27.37Z" transform="translate(-0.17 -0.17)"/>
    <path class="cls-1" d="M24.7,12l-.24,0,.15,0Z" transform="translate(-0.17 -0.17)"/>
    <path class="cls-1" d="M24.46,11.92l.24,0-.09-.07h.23a2.4,2.4,0,0,1,1,.37c.35.22,3.91,1.32,4.28,1.6a20.36,20.36,0,0,1,2.46,2.25,10.37,10.37,0,0,1,2.21,3.63,7.44,7.44,0,0,1,.19,4.37q-.06.23-.14.44A5.89,5.89,0,0,1,33,27.09,46.24,46.24,0,0,1,28.32,30l0,0c0-.12,0-.24,0-.33a41.46,41.46,0,0,0,4.05-3.25,5.62,5.62,0,0,0,1.1-2.65A7.82,7.82,0,0,0,33,20.34a22,22,0,0,0-3.58-5.82c-.28-.37-3.77-1.55-4-1.79a2.27,2.27,0,0,0-.67-.54.74.74,0,0,0-.72,0A.54.54,0,0,1,24.2,12,.88.88,0,0,1,24.46,11.92Z" transform="translate(-0.17 -0.17)"/>
    <path class="cls-4" d="M17.68,15.34a3.83,3.83,0,0,0,1.33,3,3,3,0,0,0,.42.25,2.26,2.26,0,0,0,.42.13,2.82,2.82,0,0,0,.74,0A5.24,5.24,0,0,0,22.7,18a10.33,10.33,0,0,0,1.38-1c.37-.29.65-.56.84-.74l.15-.14c-.09.62-.26,1.49-.5,2.54a1.4,1.4,0,0,0,.18,1,2.65,2.65,0,0,0,.6.68c.43.36.91.64,1.23.94.13.12.33.35.5.54l.25.3,0,.06c0,.07,0,.09,0,.09l-.08,0h-.11l-.39,0a3.81,3.81,0,0,0-1.68.24,2.56,2.56,0,0,0-1.41,1.26,2.72,2.72,0,0,0-.18,1.73,5.78,5.78,0,0,0,.43,1.27,3.17,3.17,0,0,1,.44,1.63,1,1,0,0,1-.29.5.46.46,0,0,1-.4.14c-.27,0-.7-.57-1-.86l-.87-.83-.75-.7-.43-.37a3.7,3.7,0,0,0-.31-3,3.79,3.79,0,0,0-3.54-1.73,3.56,3.56,0,0,0-1.35.4,2.94,2.94,0,0,0-.57.41l-.1.09h0v0a.32.32,0,0,1-.08.15.33.33,0,0,1-.09.07l0,0a.69.69,0,0,1-.13-.23l-.16-.4c-.06-.14-.12-.28-.19-.41a4.91,4.91,0,0,0-.88-1.2,3.75,3.75,0,0,0-.58-.48l.2-.33.33,0a3.82,3.82,0,0,0,.91-.07,4.42,4.42,0,0,0,3.58-4.13Z" transform="translate(-0.17 -0.17)"/>
    <path class="cls-1" d="M17.68,15.34a3.21,3.21,0,0,1,.17-.93,1.81,1.81,0,0,1,.13-.3l.1.31a5.35,5.35,0,0,0,.34.76A4.87,4.87,0,0,0,20.07,17s.11,0,.36,0a14.93,14.93,0,0,0,1.68-.34c.57-.13,1.11-.25,1.57-.34s.85-.14,1.12-.17l.29,0a0,0,0,0,0,0,0s0,.07,0,.12l-.15.14c-.19.18-.48.45-.84.74a10.33,10.33,0,0,1-1.38,1,5.24,5.24,0,0,1-2.1.73,2.82,2.82,0,0,1-.74,0,2.26,2.26,0,0,1-.42-.13,3,3,0,0,1-.42-.25A3.83,3.83,0,0,1,17.68,15.34Z" transform="translate(-0.17 -0.17)"/>
    <path class="cls-1" d="M12.7,20.61a5.26,5.26,0,0,0-.42-.77l-.17-.27.28.16.15.1a3.75,3.75,0,0,1,.58.48,4.91,4.91,0,0,1,.88,1.2c.07.13.13.27.19.41l.16.4a.69.69,0,0,0,.13.23l0,0a.33.33,0,0,0,.09-.07.32.32,0,0,0,.08-.15v0h0l.1-.09a2.94,2.94,0,0,1,.57-.41,3.56,3.56,0,0,1,1.35-.4,3.79,3.79,0,0,1,3.54,1.73,3.7,3.7,0,0,1,.31,3,3.8,3.8,0,0,1-1,1.63,2.23,2.23,0,0,1-.4.31l-.14.09.09-.14a3,3,0,0,0,.22-.43,3.92,3.92,0,0,0,.35-1.61,2.92,2.92,0,0,0-.69-2,2.58,2.58,0,0,0-2.09-.78,2,2,0,0,0-.67.17,1.69,1.69,0,0,0-.28.16l-.09.07-.18.16-.36.31a2,2,0,0,1-1.32.52,5.49,5.49,0,0,1-.59-.05l-.14-.08-.2-.08a9.13,9.13,0,0,0,.11-1.82c0-.15,0-.3,0-.44s0-.25-.06-.37A5.78,5.78,0,0,0,12.7,20.61Z" transform="translate(-0.17 -0.17)"/>
    <path class="cls-1" d="M12.73,19.5l.22-.24c.15-.15.35-.36.57-.61.47-.52,1-1.19,1.58-1.89s1.14-1.35,1.56-1.9c.21-.27.39-.51.5-.68l.19-.27s0,.11.09.32a3.51,3.51,0,0,1,.1.91c0,.06,0,.12,0,.19A4.42,4.42,0,0,1,14,19.46a3.82,3.82,0,0,1-.91.07Z" transform="translate(-0.17 -0.17)"/>
    <path class="cls-3" d="M22.88,10.63a15.24,15.24,0,0,0-2-1.07l.35-.37s1.64-.91,1.83-1A2.62,2.62,0,0,0,24,7.53a2.58,2.58,0,0,0,.65-1.43,14.18,14.18,0,0,0,0-1.73A2,2,0,0,1,25.19,3a2.78,2.78,0,0,1,1.32-.87,3.4,3.4,0,0,1,1.75-.06,9.21,9.21,0,0,1,3.5,1.74,14.71,14.71,0,0,1,2.49,2.34,11.54,11.54,0,0,1,.8,1l-.21.15c0,.06,0,.34,0,.79s1.29,5.11,1.52,6a9.38,9.38,0,0,0,1.41,3c.7,1,1.6,2,2.17,3a2.89,2.89,0,0,1,.19,2.82,3.35,3.35,0,0,1-1.94,1.7,4.59,4.59,0,0,1-2,.21,4.44,4.44,0,0,1-.77-.13l-.62-.28q.08-.21.14-.44a7.44,7.44,0,0,0-.19-4.37,10.37,10.37,0,0,0-2.21-3.63,20.36,20.36,0,0,0-2.46-2.25c-.37-.29-3.93-1.38-4.28-1.6a2.4,2.4,0,0,0-1-.37h-.23A18.47,18.47,0,0,0,22.88,10.63Z" transform="translate(-0.17 -0.17)"/>
    <path class="cls-1" d="M23.89,2.14a4.15,4.15,0,0,1,2-1.65A4.49,4.49,0,0,1,27.25.18a5.63,5.63,0,0,1,1.38.09,8.7,8.7,0,0,1,4.16,2.38,11.23,11.23,0,0,1,2.24,3A10.81,10.81,0,0,1,35.91,8c.07.29.11.5.13.66a1.62,1.62,0,0,1,0,.21L36,8.7l-.33-.57c-.15-.25-.35-.55-.59-.89a11.54,11.54,0,0,0-.8-1,14.71,14.71,0,0,0-2.49-2.34,9.21,9.21,0,0,0-3.5-1.74,3.4,3.4,0,0,0-1.75.06A2.78,2.78,0,0,0,25.19,3a2,2,0,0,0-.46,1.34,14.18,14.18,0,0,1,0,1.73A2.58,2.58,0,0,1,24,7.53a2.62,2.62,0,0,1-.92.66c-.19.08-1.8,1-1.83,1a8.25,8.25,0,0,1,1.16-.83h-.22l.2-.08A2.32,2.32,0,0,0,23,7.95a2.21,2.21,0,0,0,.8-1.89c0-.45-.19-.94-.3-1.6A3.32,3.32,0,0,1,23.89,2.14Z" transform="translate(-0.17 -0.17)"/>
    <path class="cls-1" d="M18.24,8.77a1.15,1.15,0,0,1,0,.22l0-.23Z" transform="translate(-0.17 -0.17)"/>
    <path class="cls-3" d="M18.19,8.76l-.52-.06a7.1,7.1,0,0,0-5.39,1.83l0,0-.07,0h0C11.72,10.9,10,12,9.93,12a2.9,2.9,0,0,0-.73.08,5.66,5.66,0,0,0-2.44,1.29A8.13,8.13,0,0,0,4.4,16.84c-.06.16-.11.32-.16.47-.36-.53-.76-1.12-1.14-1.8A9.32,9.32,0,0,1,1.75,10.3a5.72,5.72,0,0,1,.89-2.82A4.25,4.25,0,0,1,5.05,5.73a4.51,4.51,0,0,1,1.53-.15,3.74,3.74,0,0,1,.74.11,6.77,6.77,0,0,1,.76.26,5.39,5.39,0,0,0,1,.31,2.87,2.87,0,0,0,1.25-.07,4.55,4.55,0,0,0,1.71-1.11c.83-.82,1.42-1.42,2.16-1.48a3,3,0,0,1,2.1.74A4.2,4.2,0,0,1,17.49,6,8.69,8.69,0,0,1,18,7.58C18.08,8.12,18.15,8.53,18.19,8.76Z" transform="translate(-0.17 -0.17)"/>
    <path class="cls-1" d="M4.07,18c.38.37.72.68,1,1l.59.52A8,8,0,0,0,6,21.54a7.8,7.8,0,0,0,2.18,3.57A9,9,0,0,0,11.2,27a8.22,8.22,0,0,0,2.48.53,6.9,6.9,0,0,0,.71,0h.24l-.22.08a5.12,5.12,0,0,1-.7.19,7.43,7.43,0,0,1-2.73.09,8.39,8.39,0,0,1-2-.53c.07-.48.11-.77.12-.84l-.37.73a8.58,8.58,0,0,1-1.63-.94,8,8,0,0,1-3-4.29A8.48,8.48,0,0,1,4.07,18Z" transform="translate(-0.17 -0.17)"/>
    <path class="cls-1" d="M5.68,19.23l.51.65-.51-.44A1.05,1.05,0,0,1,5.68,19.23Z" transform="translate(-0.17 -0.17)"/>
    <path class="cls-1" d="M5.3,18.73l.38.49h0a1.05,1.05,0,0,0,0,.22l-.59-.52c-.29-.27-.63-.58-1-1,.05-.22.11-.44.17-.66C4.64,17.88,5,18.34,5.3,18.73Z" transform="translate(-0.17 -0.17)"/>
    <path class="cls-1" d="M22.51,11.49a31.88,31.88,0,0,0-5-.93,9.7,9.7,0,0,0-4.71.74,6.06,6.06,0,0,0-1.32.81c-.3.24-.45.39-.45.39a.65.65,0,0,0,0-.09c0-.09.09-.25.2-.48a4.86,4.86,0,0,1,1-1.4,7.1,7.1,0,0,1,5.39-1.83l.52.06,0,.23a1.15,1.15,0,0,0,0-.22,10.33,10.33,0,0,1,2.68.78,15.24,15.24,0,0,1,2,1.07,18.47,18.47,0,0,1,1.73,1.27l-.15,0C24.11,11.86,23.42,11.71,22.51,11.49Z" transform="translate(-0.17 -0.17)"/>
    <path class="cls-3" d="M28.32,24.39l-1-.07h0ZM13,19.26l-.22.24-.2.33-.15-.1-.28-.16.17.27a5.26,5.26,0,0,1,.42.77,5.78,5.78,0,0,1,.38,1.24c0,.12,0,.24.06.37s0,.29,0,.44a9.13,9.13,0,0,1-.11,1.82l.2.08.14.08a5.49,5.49,0,0,0,.59.05,2,2,0,0,0,1.32-.52l.36-.31.18-.16.09-.07a1.69,1.69,0,0,1,.28-.16,2,2,0,0,1,.67-.17,2.58,2.58,0,0,1,2.09.78,2.92,2.92,0,0,1,.69,2,3.92,3.92,0,0,1-.35,1.61,3,3,0,0,1-.22.43l-.09.14.14-.09a2.23,2.23,0,0,0,.4-.31,3.8,3.8,0,0,0,1-1.63l.43.37.52.88.63,1,.4.63a1.89,1.89,0,0,0,.76.74,1.45,1.45,0,0,0,1.33-.08,2.16,2.16,0,0,0,.89-1,4,4,0,0,0-.17-2.59,2.25,2.25,0,0,1-.13-1.64.84.84,0,0,1,.47-.34,2.28,2.28,0,0,1,.89-.1l.27,0,.23,0,.32.06c.39.08.78.17,1.14.21h-.12l.24,0h-.09l2.15.11a20.34,20.34,0,0,0-1.68-2.76q-.27-.32-.53-.62l-.34-.34a7.43,7.43,0,0,0-.74-.6c-.55-.36-1-.54-1.4-.76a1.73,1.73,0,0,1-.43-.31.44.44,0,0,1-.14-.29,20,20,0,0,0-.1-2.76c0-.16,0-.3-.06-.43v-.11s-.1,0-.09,0,0,.05,0,.08h0v0h0v0c0,.11,0,.24,0,.39l-.29,0c-.27,0-.66.08-1.12.17s-1,.21-1.57.34a14.93,14.93,0,0,1-1.68.34c-.25,0-.38,0-.36,0a4.87,4.87,0,0,1-1.66-1.77,5.35,5.35,0,0,1-.34-.76l-.1-.31a1.81,1.81,0,0,0-.13.3,3.21,3.21,0,0,0-.17.93h-.12c0-.07,0-.13,0-.19a3.51,3.51,0,0,0-.1-.91c-.05-.22-.09-.32-.09-.32l-.19.27c-.12.17-.3.41-.5.68-.42.55-1,1.19-1.56,1.9S14,18.13,13.53,18.65C13.31,18.9,13.11,19.12,13,19.26Zm-3-7.15c.11,0,1.8-1.21,2.23-1.51h0l.07,0,0,0a4.86,4.86,0,0,0-1,1.4c-.11.23-.16.39-.2.48a.65.65,0,0,1,0,.09s.16-.15.45-.39a6.06,6.06,0,0,1,1.32-.81,9.7,9.7,0,0,1,4.71-.74,31.88,31.88,0,0,1,5,.93c.91.22,1.6.37,1.94.43a.88.88,0,0,0-.25.11.54.54,0,0,0-.16.15.74.74,0,0,1,.72,0,2.27,2.27,0,0,1,.67.54c.21.25,3.7,1.43,4,1.79A22,22,0,0,1,33,20.34a7.82,7.82,0,0,1,.42,3.45,5.62,5.62,0,0,1-1.1,2.65,41.46,41.46,0,0,1-4.05,3.25c0-.31-.05-.47-.05-.47l-.15.63c-.32.27-.51.41-.51.41a4.48,4.48,0,0,0,.45-.14,12.46,12.46,0,0,1-.7,2.28,3.66,3.66,0,0,1-2.1,2.14,6.67,6.67,0,0,1-3.81-.24,25,25,0,0,1-4-1.52,7.9,7.9,0,0,1-2.76-1.88,3.09,3.09,0,0,1-.74-2.07A2.5,2.5,0,0,1,14,28.2c.06-.15.08-.22.08-.22l-.15.18-.22-.34a5.12,5.12,0,0,0,.7-.19l.22-.08H14.4a6.9,6.9,0,0,1-.71,0A8.22,8.22,0,0,1,11.2,27a9,9,0,0,1-3.07-1.89A7.8,7.8,0,0,1,6,21.54a8,8,0,0,1-.28-2.1l.51.44-.51-.65h0a9.19,9.19,0,0,1,.24-1.93,8.4,8.4,0,0,1,1.52-3.24,6,6,0,0,1,1.86-1.66A3.35,3.35,0,0,1,9.94,12.11Z" transform="translate(-0.17 -0.17)"/>
    <path class="cls-1" d="M12.28,10.54l0,0Z" transform="translate(-0.17 -0.17)"/>
    <path class="cls-1" d="M12.17,10.61c-.44.3-2.13,1.48-2.23,1.51a3.35,3.35,0,0,0-.65.27,6,6,0,0,0-1.86,1.66A8.4,8.4,0,0,0,5.91,17.3a9.19,9.19,0,0,0-.24,1.93l-.38-.49c-.29-.39-.65-.86-1-1.42,0-.16.1-.32.16-.47a8.13,8.13,0,0,1,2.35-3.43A5.66,5.66,0,0,1,9.2,12.12,2.9,2.9,0,0,1,9.93,12C10,12,11.72,10.9,12.17,10.61Z" transform="translate(-0.17 -0.17)"/>
    <path class="cls-1" d="M14.22,3.58c-.73.06-1.33.65-2.16,1.48a4.55,4.55,0,0,1-1.71,1.11,2.87,2.87,0,0,1-1.25.07,5.39,5.39,0,0,1-1-.31,6.77,6.77,0,0,0-.76-.26,3.74,3.74,0,0,0-.74-.11,4.51,4.51,0,0,0-1.53.15A4.25,4.25,0,0,0,2.64,7.47a5.72,5.72,0,0,0-.89,2.82,9.32,9.32,0,0,0,1.36,5.21c.38.68.78,1.27,1.14,1.8-.07.22-.12.44-.17.66a18.4,18.4,0,0,1-1.75-2A11.7,11.7,0,0,1,.88,13.56a8.6,8.6,0,0,1-.7-3.3,7,7,0,0,1,1-3.75A5.81,5.81,0,0,1,4.54,3.94a6.22,6.22,0,0,1,2.19-.2,6.06,6.06,0,0,1,1.07.2,7.43,7.43,0,0,1,1,.36,4.16,4.16,0,0,0,.67.24,1.09,1.09,0,0,0,.47,0A3.15,3.15,0,0,0,11,3.88a12.52,12.52,0,0,1,1.36-1,3.3,3.3,0,0,1,1.79-.53A4,4,0,0,1,17,3.65a4.86,4.86,0,0,1,1.09,2.16,8.24,8.24,0,0,1,.21,1.73c0,.58,0,1,0,1.23h0c0-.23-.11-.64-.21-1.18A8.69,8.69,0,0,0,17.49,6a4.2,4.2,0,0,0-1.17-1.67A3,3,0,0,0,14.22,3.58Z" transform="translate(-0.17 -0.17)"/>
  </g>
</svg>
